<svg id="Calque_1" data-name="Calque 1" xmlns="http://www.w3.org/2000/svg" viewBox="0 0 103.54 105.33"><defs><style>.cls-1{fill:#2253a5;}</style></defs><path class="cls-1" d="M373.78,172.28v-6.17c.08-.74.17-1.48.25-2.22a52.37,52.37,0,0,1,13-29.8,50.57,50.57,0,0,1,29.61-16.74c2-.35,3.92-.55,5.89-.82h6.06c1.74.22,3.48.38,5.2.68a50.08,50.08,0,0,1,28,14.45c11.64,11.82,16.76,26.19,15.27,42.83a50.73,50.73,0,0,1-12.64,29.44c-9.76,11.14-22,17.14-36.68,17.86a48.53,48.53,0,0,1-28.57-7.34c-13.44-8.33-21.69-20.41-24.59-36.19C374.22,176.29,374.05,174.28,373.78,172.28ZM417.67,178l-5.85-5.44c-2.87-2.65-5.66-5.4-8.63-7.92a4.93,4.93,0,0,0-7.91,2.69,5.5,5.5,0,0,0,1.86,5.63q8.36,7.69,16.68,15.43,4.11,3.82,8.09-.19L453.84,156c.34-.34.68-.68,1-1a5.3,5.3,0,0,0-2.41-8.43c-2.28-.74-4.12.07-5.75,1.73q-14.13,14.42-28.3,28.81A7.14,7.14,0,0,0,417.67,178Z" transform="translate(-373.78 -116.53)"/></svg>