<svg id="Calque_1" data-name="Calque 1" xmlns="http://www.w3.org/2000/svg" viewBox="0 0 51.08 75.86"><defs><style>.cls-1{fill:#2253a5;}</style></defs><path class="cls-1" d="M296.06,192.4a8.08,8.08,0,0,1-1.22-1.34q-10.3-18.37-20.59-36.78a24.08,24.08,0,0,1-3.12-14.89c1.1-9.15,5.79-16,14.19-20.11,8.68-4.19,17.3-3.55,25.36,1.67a25.06,25.06,0,0,1,8.11,33.26q-10.28,18.43-20.62,36.85A7.6,7.6,0,0,1,297,192.4Zm.53-63.14A12.63,12.63,0,1,0,309.26,142,12.72,12.72,0,0,0,296.59,129.26Z" transform="translate(-270.96 -116.53)"/></svg>