<svg id="Calque_1" data-name="Calque 1" xmlns="http://www.w3.org/2000/svg" viewBox="0 0 105.53 105.56"><defs><style>.cls-1{fill:#2253a5;}.cls-2{fill:#f2734a;}</style></defs><path class="cls-1" d="M582.19,155.83a40.46,40.46,0,0,1-33.52,39.91A39.5,39.5,0,0,1,523.51,192a3,3,0,0,0-2.39-.1c-5.09,1.46-10.19,2.92-15.3,4.34a3.39,3.39,0,0,1-4.42-2.61,5.59,5.59,0,0,1,.23-2.36c1.4-5,2.87-10.06,4.25-15.1a2.8,2.8,0,0,0-.17-1.83A40.45,40.45,0,0,1,518.07,123c21.83-15.94,53.47-5.8,62,19.86A39.86,39.86,0,0,1,582.19,155.83Z" transform="translate(-501.26 -115.4)"/><path class="cls-2" d="M532.5,202.55c16.57,2.7,31.06-1.3,42.86-13.14s15.7-26.28,13-42.76a36.33,36.33,0,0,1,7.4,6.12,40,40,0,0,1,11,29.33,38.55,38.55,0,0,1-4.35,16.64,2.68,2.68,0,0,0-.21,2.18c1.46,5,2.85,10,4.31,15a3.64,3.64,0,0,1-4.85,4.79q-7.59-2.2-15.2-4.31a2.47,2.47,0,0,0-1.63.14,40.45,40.45,0,0,1-51.51-12.72C533.07,203.41,532.82,203,532.5,202.55Z" transform="translate(-501.26 -115.4)"/></svg>