<svg id="Calque_1" data-name="Calque 1" xmlns="http://www.w3.org/2000/svg" viewBox="0 0 121.5 106.19"><defs><style>.cls-1{fill:#2253a5;}</style></defs><path class="cls-1" d="M231.12,139.37a5,5,0,0,1-3.47,2.91q-27.61,9.15-55.21,18.41a5.83,5.83,0,0,1-3.91.05q-27.9-9.33-55.82-18.62c-2.52-.84-3.63-2.75-2.83-4.85a3.91,3.91,0,0,1,2.69-2.29q15.17-5,30.32-10.09c8.53-2.85,17.07-5.68,25.59-8.56a5.63,5.63,0,0,1,3.8,0q27.85,9.32,55.72,18.56a4.66,4.66,0,0,1,3.12,2.82Z" transform="translate(-109.62 -116)"/><path class="cls-1" d="M231.12,219.57c-1,2-2.6,2.68-4.8,2.62-4.46-.11-8.93,0-13.39,0-2.79,0-4.15-1.36-4.15-4.14,0-6.09,0-12.17,0-18.26a10.86,10.86,0,0,1,6.88-10.52c.72-.33.74-.77.74-1.38,0-11,0-22,0-33a1.59,1.59,0,0,1,1.37-1.86c1.89-.53,3.74-1.22,5.78-1.9v1.51q0,17.47,0,35a1.59,1.59,0,0,0,1.07,1.77,10.88,10.88,0,0,1,6.29,7.68c.08.3.18.6.27.89Z" transform="translate(-109.62 -116)"/><path class="cls-1" d="M208.26,156.27v1.45c0,7.23,0,14.47,0,21.7a5.42,5.42,0,0,1-1.81,4.29,50.54,50.54,0,0,1-30.34,14.18c-16.31,1.64-30.48-3.28-42.28-14.71a4.52,4.52,0,0,1-1.29-2.9c-.1-7.87-.05-15.73-.05-23.6a2.24,2.24,0,0,1,.12-.37c.39.11.79.22,1.17.35,10.83,3.6,21.66,7.17,32.46,10.82a12.42,12.42,0,0,0,8.23,0q16.32-5.49,32.66-10.9Z" transform="translate(-109.62 -116)"/></svg>