<svg id="Calque_1" data-name="Calque 1" xmlns="http://www.w3.org/2000/svg" viewBox="0 0 383.34 382.58"><defs><style>.cls-1{fill:#f8ce0f;}</style></defs><path class="cls-1" d="M229,258v-6a15.17,15.17,0,0,1,12.21-9c37.35-5.56,74.66-11.38,112-16.92,3.09-.46,4.41-1.83,5.61-4.41Q383.91,168,409.11,114.4c2.38-5.1,6.08-7.75,11.66-7.7,5.42,0,9.11,2.57,11.38,7.55,4.82,10.53,9.83,21,14.75,31.46q18,38.39,36.11,76.75c.64,1.34,2.17,3,3.49,3.17,26.47,4.17,53,8.16,79.45,12.19,11.71,1.78,23.42,3.52,35.11,5.38,6.56,1.05,10.56,5,11.21,10.76.54,4.82-1.92,8.27-5.1,11.51q-40.68,41.59-81.25,83.32c-1.18,1.22-2.29,3.43-2,5q9.36,59.07,19.08,118.08c1.61,9.85.1,13.13-8.47,17.45h-6c-1.48-.85-3-1.72-4.44-2.55q-50-27.63-100-55.32a6,6,0,0,0-6.79,0c-9.06,5.21-18.27,10.15-27.42,15.21q-38.5,21.3-77,42.63h-6c-8.11-4.13-10.09-8-8.73-16.35,6.47-39.45,12.85-78.91,19.4-118.35a5.94,5.94,0,0,0-2-5.84q-40.3-41.16-80.45-82.46C232.76,263.83,231,260.75,229,258Z" transform="translate(-229 -106.69)"/></svg>